HIERARCHY
ROOT Hips
{
    OFFSET 0.000000 0.000000 0.000000
    CHANNELS 6 Xposition Yposition Zposition Zrotation Xrotation Yrotation
    JOINT Spine
    {
        OFFSET -0.000000 14.517291 0.000000
        CHANNELS 3 Zrotation Xrotation Yrotation
        JOINT Spine1
        {
            OFFSET -0.000000 37.558300 0.000000
            CHANNELS 3 Zrotation Xrotation Yrotation
            JOINT Neck
            {
                OFFSET -0.000000 37.404057 3.400369
                CHANNELS 3 Zrotation Xrotation Yrotation
                JOINT Head
                {
                    OFFSET -0.000000 24.785618 -3.540803
                    CHANNELS 3 Zrotation Xrotation Yrotation
                    End Site
                    {
                        OFFSET -0.000000 35.408028 0.000000
                    }
                }
            }
            JOINT LeftShoulder
            {
                OFFSET 6.992933 33.973492 -0.192664
                CHANNELS 3 Zrotation Xrotation Yrotation
                JOINT LeftArm
                {
                    OFFSET 21.527611 0.000000 0.000000
                    CHANNELS 3 Zrotation Xrotation Yrotation
                    JOINT LeftForeArm
                    {
                        OFFSET 56.353916 0.000000 0.000000
                        CHANNELS 3 Zrotation Xrotation Yrotation
                        JOINT LeftHand
                        {
                            OFFSET 47.774071 0.000000 0.000000
                            CHANNELS 3 Zrotation Xrotation Yrotation
                            End Site
                            {
                                OFFSET 26.556021 0.000000 0.000000
                            }
                        }
                    }
                }
            }
            JOINT RightShoulder
            {
                OFFSET -7.065357 33.973492 -0.192664
                CHANNELS 3 Zrotation Xrotation Yrotation
                JOINT RightArm
                {
                    OFFSET -21.527611 0.000000 0.000000
                    CHANNELS 3 Zrotation Xrotation Yrotation
                    JOINT RightForeArm
                    {
                        OFFSET -56.353916 0.000000 0.000000
                        CHANNELS 3 Zrotation Xrotation Yrotation
                        JOINT RightHand
                        {
                            OFFSET -47.774071 0.000000 0.000000
                            CHANNELS 3 Zrotation Xrotation Yrotation
                            End Site
                            {
                                OFFSET -26.556021 0.000000 0.000000
                            }
                        }
                    }
                }
            }
        }
    }
    JOINT LeftUpLeg
    {
        OFFSET 17.704014 0.000000 0.000000
        CHANNELS 3 Zrotation Xrotation Yrotation
        JOINT LeftLeg
        {
            OFFSET -0.000000 -81.181816 0.000000
            CHANNELS 3 Zrotation Xrotation Yrotation
            JOINT LeftFoot
            {
                OFFSET -0.000000 -62.821102 0.000000
                CHANNELS 3 Zrotation Xrotation Yrotation
                JOINT LeftToeBase
                {
                    OFFSET -0.000000 -11.507608 26.556021
                    CHANNELS 3 Zrotation Xrotation Yrotation
                    End Site
                    {
                        OFFSET -0.000000 0.000000 7.081605
                    }
                }
            }
        }
    }
    JOINT RightUpLeg
    {
        OFFSET -17.704014 0.000000 0.000000
        CHANNELS 3 Zrotation Xrotation Yrotation
        JOINT RightLeg
        {
            OFFSET -0.000000 -81.181816 0.000000
            CHANNELS 3 Zrotation Xrotation Yrotation
            JOINT RightFoot
            {
                OFFSET -0.000000 -62.821102 0.000000
                CHANNELS 3 Zrotation Xrotation Yrotation
                JOINT RightToeBase
                {
                    OFFSET -0.000000 -11.507608 26.556021
                    CHANNELS 3 Zrotation Xrotation Yrotation
                    End Site
                    {
                        OFFSET -0.000000 0.000000 7.081605
                    }
                }
            }
        }
    }
}
MOTION
Frames:    12
Frame Time:    0.008333
1.911100    151.924866    -103.368614    1.988225    -3.402241    50.540096    -2.369464    2.613869    -4.123710    -3.783713    1.336826    -1.348400    4.032676    4.661459    -18.610792    14.509017    1.764733    -18.045214    6.088470    8.413937    -19.938543    -25.463615    23.294556    -57.001141    -4.184096    -7.107038    -101.594330    12.063988    -13.092176    -8.942654    -8.552316    -1.229709    -4.588468    24.493813    -22.879240    49.198521    -20.416283    -14.799597    66.782684    -2.339176    -2.063449    36.135876    26.206762    -5.769552    10.479235    -12.660766    29.058290    -12.505040    -8.145198    -19.039373    42.312691    0.000000    0.000000    0.000000    -23.626667    -16.110363    -15.472179    10.967042    28.416216    -10.983478    5.711050    -0.684978    -21.379972    0.000000    0.000000    0.000000    
1.942007    151.936218    -103.390717    1.971248    -3.408880    50.494022    -2.375485    2.615289    -4.119224    -3.741778    1.311584    -1.348277    4.009965    4.677849    -18.604626    14.547037    1.758089    -18.030216    6.085383    8.400318    -19.932562    -25.471762    23.275515    -56.967533    -4.194391    -7.086120    -101.582390    12.065285    -13.082565    -8.938538    -8.563173    -1.228205    -4.577937    24.470922    -22.872643    49.206738    -20.407064    -14.825816    66.731918    -2.304738    -2.099408    36.158844    26.210037    -5.761899    10.459494    -12.688714    29.067614    -12.426299    -8.130171    -19.046280    42.311901    0.000000    0.000000    0.000000    -23.591881    -16.119877    -15.343698    10.976739    28.350868    -11.002739    5.716443    -0.638354    -21.437910    0.000000    0.000000    0.000000    
1.965810    151.941833    -103.412376    1.954404    -3.415709    50.448215    -2.365958    2.620590    -4.117846    -3.731805    1.284062    -1.348802    4.034518    4.685828    -18.596483    14.531456    1.741956    -18.023867    6.094534    8.382024    -19.924128    -25.476864    23.270124    -56.934654    -4.202126    -7.101727    -101.575714    12.041768    -13.103784    -8.929242    -8.555132    -1.221647    -4.575019    24.483158    -22.908316    49.247498    -20.360451    -14.799321    66.698914    -2.302351    -2.111861    36.148701    26.219994    -5.753632    10.408305    -12.739005    29.073746    -12.386318    -8.091294    -19.067318    42.365257    0.000000    0.000000    0.000000    -23.558037    -16.140112    -15.238044    10.974607    28.308643    -11.031420    5.739130    -0.598738    -21.485931    0.000000    0.000000    0.000000    
1.986746    151.950592    -103.428116    1.947261    -3.423520    50.409000    -2.370062    2.628161    -4.117675    -3.710519    1.267464    -1.349570    4.028768    4.682276    -18.589970    14.545188    1.746058    -18.015375    6.092488    8.360082    -19.929619    -25.469894    23.282524    -56.880657    -4.199067    -7.167801    -101.579803    11.668736    -13.146585    -9.027459    -8.561025    -1.246802    -4.563275    24.477030    -22.898888    49.252094    -20.339878    -14.808399    66.656387    -2.278373    -2.138753    36.156338    26.217968    -5.734578    10.389086    -12.753203    29.070906    -12.377785    -8.073531    -19.087524    42.413013    0.000000    0.000000    0.000000    -23.531540    -16.145826    -15.161963    10.972840    28.262442    -11.043324    5.738483    -0.560435    -21.518366    0.000000    0.000000    0.000000    
2.002648    151.953033    -103.440582    1.940113    -3.430152    50.364658    -2.378965    2.628949    -4.114184    -3.696830    1.263491    -1.348759    4.061654    4.684847    -18.578972    14.527735    1.720543    -18.006163    6.107543    8.335900    -19.929508    -25.474886    23.283567    -56.858452    -4.182075    -7.219899    -101.563026    11.714113    -13.176723    -9.000604    -8.556084    -1.268442    -4.555180    24.481112    -22.907080    49.269619    -20.309719    -14.793277    66.611626    -2.273518    -2.154097    36.161812    26.218540    -5.713623    10.369910    -12.769758    29.067739    -12.371285    -8.040374    -19.104586    42.462074    0.000000    0.000000    0.000000    -23.508797    -16.160999    -15.081141    10.974762    28.231735    -11.081836    5.752545    -0.523559    -21.526850    0.000000    0.000000    0.000000    
2.013680    151.955063    -103.451920    1.936411    -3.435477    50.322350    -2.389533    2.627698    -4.107823    -3.685911    1.267009    -1.346694    4.080602    4.683180    -18.575865    14.525013    1.704612    -18.003313    6.116039    8.320254    -19.933533    -25.479155    23.257391    -56.840199    -4.186285    -7.259470    -101.541992    11.749518    -13.222275    -9.009128    -8.553823    -1.277763    -4.550457    24.477619    -22.903357    49.286823    -20.300533    -14.813756    66.553558    -2.248358    -2.187698    36.126579    26.215252    -5.696870    10.372511    -12.771616    29.077528    -12.354820    -8.037479    -19.129484    42.483242    0.000000    0.000000    0.000000    -23.492941    -16.170609    -14.995436    10.997512    28.194582    -11.112192    5.740764    -0.498011    -21.551311    0.000000    0.000000    0.000000    
2.019869    151.955826    -103.461388    1.934532    -3.437964    50.281189    -2.406636    2.625706    -4.099635    -3.674633    1.275544    -1.343967    4.106499    4.671112    -18.568935    14.511510    1.694074    -17.999588    6.123698    8.299876    -19.940266    -25.479795    23.249475    -56.824329    -4.165601    -7.341283    -101.520889    11.731209    -13.274570    -9.010098    -8.549985    -1.315574    -4.536893    24.467964    -22.890858    49.279144    -20.296820    -14.821065    66.502800    -2.249072    -2.211226    36.134617    26.210651    -5.679417    10.376030    -12.774759    29.079990    -12.329863    -8.022890    -19.140650    42.488609    0.000000    0.000000    0.000000    -23.481016    -16.184837    -14.928318    11.006212    28.170345    -11.143024    5.775616    -0.479322    -21.570004    0.000000    0.000000    0.000000    
2.015995    151.954636    -103.469635    1.925426    -3.436573    50.246593    -2.420726    2.622726    -4.093211    -3.661195    1.276582    -1.342019    4.100113    4.669716    -18.574646    14.541850    1.684645    -18.000055    6.121928    8.288644    -19.948685    -25.484293    23.206131    -56.808624    -4.143536    -7.379669    -101.488190    11.746552    -13.285936    -9.026181    -8.563457    -1.320042    -4.543258    24.491867    -22.893356    49.305164    -20.287071    -14.829730    66.454811    -2.237313    -2.235176    36.124779    26.208738    -5.679229    10.369308    -12.775618    29.090147    -12.289651    -8.025234    -19.154484    42.486980    0.000000    0.000000    0.000000    -23.472916    -16.200804    -14.876004    11.030550    28.141928    -11.169109    5.759892    -0.460125    -21.583233    0.000000    0.000000    0.000000    
2.011126    151.954163    -103.470314    1.921763    -3.443531    50.215771    -2.432183    2.619306    -4.089405    -3.655755    1.294134    -1.340286    4.102825    4.646508    -18.572250    14.554914    1.695350    -17.998459    6.126236    8.270082    -19.944227    -25.496836    23.174126    -56.810513    -4.123768    -7.426400    -101.452446    11.742302    -13.305421    -9.032794    -8.568981    -1.346795    -4.539567    24.486420    -22.864264    49.299393    -20.304474    -14.863255    66.400131    -2.224694    -2.268117    36.127808    26.213757    -5.670394    10.368928    -12.771230    29.101151    -12.290744    -8.025050    -19.163586    42.498329    0.000000    0.000000    0.000000    -23.456255    -16.206486    -14.863106    11.021419    28.126728    -11.194585    5.770968    -0.449688    -21.546938    0.000000    0.000000    0.000000    
1.999132    151.949844    -103.475525    1.907284    -3.443722    50.189007    -2.434700    2.608467    -4.086067    -3.657967    1.301043    -1.338926    4.099226    4.647853    -18.581543    14.583763    1.691645    -18.003788    6.125182    8.269296    -19.956984    -25.491959    23.134977    -56.810978    -4.126978    -7.482063    -101.424126    11.765918    -13.363695    -9.035940    -8.573369    -1.363664    -4.530009    24.469753    -22.831074    49.279480    -20.334995    -14.906052    66.352859    -2.215648    -2.300493    36.114758    26.225060    -5.685580    10.345016    -12.792855    29.116709    -12.242294    -8.012306    -19.173847    42.514717    0.000000    0.000000    0.000000    -23.448309    -16.222048    -14.872837    11.023835    28.111095    -11.196148    5.784281    -0.450431    -21.525583    0.000000    0.000000    0.000000    
1.984825    151.945480    -103.474998    1.888513    -3.454700    50.169872    -2.424544    2.600290    -4.092616    -3.664641    1.311069    -1.340583    4.091570    4.635950    -18.581501    14.610987    1.699028    -18.000982    6.128960    8.254090    -19.952152    -25.516050    23.100657    -56.814331    -4.141264    -7.507819    -101.393028    11.801204    -13.406606    -9.041922    -8.576428    -1.377526    -4.523890    24.582914    -22.947292    49.379070    -20.233179    -14.764116    66.315247    -2.228805    -2.237677    36.128349    26.251104    -5.702245    10.312951    -12.808582    29.145334    -12.245014    -7.993519    -19.188089    42.550175    0.000000    0.000000    0.000000    -23.425840    -16.230734    -14.919100    11.004934    28.102571    -11.179867    5.795100    -0.440340    -21.492374    0.000000    0.000000    0.000000    
1.963381    151.937363    -103.475311    1.864196    -3.459130    50.153248    -2.418744    2.581794    -4.096702    -3.669146    1.328696    -1.341153    4.078965    4.635129    -18.587976    14.653181    1.693214    -18.000559    6.126597    8.246742    -19.953129    -25.531126    23.063175    -56.821022    -4.155746    -7.543520    -101.366356    11.831664    -13.459805    -9.051466    -8.580493    -1.375232    -4.537927    24.589077    -22.924017    49.398495    -20.262350    -14.800621    66.265633    -2.216661    -2.264367    36.134266    26.276829    -5.728775    10.293352    -12.820153    29.168554    -12.260798    -7.985137    -19.217445    42.601139    0.000000    0.000000    0.000000    -23.408047    -16.248243    -14.956740    11.000426    28.090378    -11.192411    5.784025    -0.430648    -21.451956    0.000000    0.000000    0.000000    
